<svg width="21" height="20" viewBox="0 0 21 20" fill="none" xmlns="http://www.w3.org/2000/svg">
<path d="M20.1106 18.2925C20.2035 18.3854 20.2772 18.4957 20.3275 18.6171C20.3778 18.7385 20.4036 18.8686 20.4036 19C20.4036 19.1314 20.3778 19.2615 20.3275 19.3829C20.2772 19.5043 20.2035 19.6146 20.1106 19.7075C20.0177 19.8004 19.9074 19.8741 19.786 19.9244C19.6646 19.9747 19.5345 20.0006 19.4031 20.0006C19.2717 20.0006 19.1416 19.9747 19.0202 19.9244C18.8988 19.8741 18.7885 19.8004 18.6956 19.7075L10.4031 11.4138L2.11058 19.7075C1.92294 19.8951 1.66845 20.0006 1.40308 20.0006C1.13772 20.0006 0.883224 19.8951 0.695583 19.7075C0.507942 19.5199 0.402527 19.2654 0.402527 19C0.402527 18.7346 0.507942 18.4801 0.695583 18.2925L8.98933 10L0.695583 1.70751C0.507942 1.51987 0.402527 1.26537 0.402527 1.00001C0.402527 0.734643 0.507942 0.480147 0.695583 0.292507C0.883224 0.104866 1.13772 -0.000549316 1.40308 -0.000549316C1.66845 -0.000549316 1.92294 0.104866 2.11058 0.292507L10.4031 8.58626L18.6956 0.292507C18.8832 0.104866 19.1377 -0.000549322 19.4031 -0.000549316C19.6684 -0.000549311 19.9229 0.104866 20.1106 0.292507C20.2982 0.480147 20.4036 0.734643 20.4036 1.00001C20.4036 1.26537 20.2982 1.51987 20.1106 1.70751L11.8168 10L20.1106 18.2925Z" fill="black"/>
</svg>
