<svg width="25" height="18" viewBox="0 0 25 18" fill="none" xmlns="http://www.w3.org/2000/svg">
<path d="M24.4031 9C24.4031 9.26522 24.2977 9.51957 24.1102 9.70711C23.9226 9.89464 23.6683 10 23.4031 10H1.40308C1.13786 10 0.883506 9.89464 0.69597 9.70711C0.508433 9.51957 0.403076 9.26522 0.403076 9C0.403076 8.73478 0.508433 8.48043 0.69597 8.29289C0.883506 8.10536 1.13786 8 1.40308 8H23.4031C23.6683 8 23.9226 8.10536 24.1102 8.29289C24.2977 8.48043 24.4031 8.73478 24.4031 9ZM1.40308 2H23.4031C23.6683 2 23.9226 1.89464 24.1102 1.70711C24.2977 1.51957 24.4031 1.26522 24.4031 1C24.4031 0.734784 24.2977 0.48043 24.1102 0.292893C23.9226 0.105357 23.6683 0 23.4031 0H1.40308C1.13786 0 0.883506 0.105357 0.69597 0.292893C0.508433 0.48043 0.403076 0.734784 0.403076 1C0.403076 1.26522 0.508433 1.51957 0.69597 1.70711C0.883506 1.89464 1.13786 2 1.40308 2ZM23.4031 16H1.40308C1.13786 16 0.883506 16.1054 0.69597 16.2929C0.508433 16.4804 0.403076 16.7348 0.403076 17C0.403076 17.2652 0.508433 17.5196 0.69597 17.7071C0.883506 17.8946 1.13786 18 1.40308 18H23.4031C23.6683 18 23.9226 17.8946 24.1102 17.7071C24.2977 17.5196 24.4031 17.2652 24.4031 17C24.4031 16.7348 24.2977 16.4804 24.1102 16.2929C23.9226 16.1054 23.6683 16 23.4031 16Z" fill="black"/>
</svg>
