<svg width="40" height="39" viewBox="0 0 40 39" fill="none" xmlns="http://www.w3.org/2000/svg">
<path d="M39.2975 35.75C36.4419 30.8131 32.0412 27.2731 26.9056 25.595C29.4459 24.0827 31.4196 21.7784 32.5235 19.0358C33.6274 16.2933 33.8006 13.2642 33.0164 10.4138C32.2321 7.56331 30.5339 5.04909 28.1824 3.25721C25.831 1.46533 22.9564 0.494873 20 0.494873C17.0436 0.494873 14.169 1.46533 11.8175 3.25721C9.4661 5.04909 7.76786 7.56331 6.98363 10.4138C6.19941 13.2642 6.37255 16.2933 7.47647 19.0358C8.5804 21.7784 10.5541 24.0827 13.0944 25.595C7.95875 27.2712 3.55812 30.8112 0.702496 35.75C0.597776 35.9207 0.528315 36.1107 0.498213 36.3088C0.468111 36.5068 0.477977 36.7088 0.527229 36.903C0.576482 37.0972 0.664123 37.2795 0.784981 37.4392C0.90584 37.599 1.05747 37.7329 1.23092 37.8331C1.40437 37.9333 1.59613 37.9977 1.79489 38.0226C1.99364 38.0474 2.19537 38.0323 2.38816 37.9779C2.58095 37.9236 2.76091 37.8312 2.91741 37.7061C3.07391 37.5811 3.20379 37.426 3.29937 37.25C6.83187 31.145 13.0756 27.5 20 27.5C26.9244 27.5 33.1681 31.145 36.7006 37.25C36.7962 37.426 36.9261 37.5811 37.0826 37.7061C37.2391 37.8312 37.419 37.9236 37.6118 37.9779C37.8046 38.0323 38.0063 38.0474 38.2051 38.0226C38.4039 37.9977 38.5956 37.9333 38.7691 37.8331C38.9425 37.7329 39.0942 37.599 39.215 37.4392C39.3359 37.2795 39.4235 37.0972 39.4728 36.903C39.522 36.7088 39.5319 36.5068 39.5018 36.3088C39.4717 36.1107 39.4022 35.9207 39.2975 35.75ZM9.5 14C9.5 11.9233 10.1158 9.8932 11.2696 8.16649C12.4233 6.43977 14.0632 5.09396 15.9818 4.29924C17.9004 3.50452 20.0116 3.29658 22.0484 3.70173C24.0852 4.10687 25.9562 5.1069 27.4246 6.57535C28.8931 8.0438 29.8931 9.91473 30.2982 11.9515C30.7034 13.9883 30.4955 16.0995 29.7007 18.0182C28.906 19.9368 27.5602 21.5767 25.8335 22.7304C24.1068 23.8842 22.0767 24.5 20 24.5C17.2161 24.497 14.5472 23.3898 12.5787 21.4213C10.6102 19.4528 9.50297 16.7838 9.5 14Z" fill="white"/>
</svg>
